<svg id="visual" viewBox="0 0 540 960" width="540" height="960" xmlns="http://www.w3.org/2000/svg" xmlns:xlink="http://www.w3.org/1999/xlink" version="1.1"><path d="M0 875L15 870.3C30 865.7 60 856.3 90 860.5C120 864.7 150 882.3 180 893C210 903.7 240 907.3 270 902.5C300 897.7 330 884.3 360 865.5C390 846.7 420 822.3 450 813.5C480 804.7 510 811.3 525 814.7L540 818L540 961L525 961C510 961 480 961 450 961C420 961 390 961 360 961C330 961 300 961 270 961C240 961 210 961 180 961C150 961 120 961 90 961C60 961 30 961 15 961L0 961Z" fill="#fff" stroke-linecap="round" stroke-linejoin="miter"></path></svg>